<svg xmlns="http://www.w3.org/2000/svg" fill="none" viewBox="62.97 70 104.05 10">
    <rect width="230" height="150" fill="none" />
    <path fill-rule="evenodd" clip-rule="evenodd"
        d="M64.8958 80C64.5491 80 64.2296 79.9135 63.9355 79.7403C63.6413 79.5671 63.4075 79.3334 63.2342 79.039C63.0608 78.7447 62.9731 78.4242 62.9731 78.0778V77.2078H64.9874V77.974H70.2862V76.3376H64.8958C64.5491 76.3376 64.2296 76.2511 63.9355 76.078C63.6413 75.9048 63.4075 75.6732 63.2342 75.3831C63.0608 75.093 62.9731 74.7706 62.9731 74.4155V72.5714C62.9731 72.2163 63.0608 71.8939 63.2342 71.6038C63.4075 71.3138 63.6413 71.0822 63.9355 70.909C64.2296 70.7358 64.5491 70.6493 64.8958 70.6493H70.403C70.7478 70.6493 71.0674 70.7358 71.3576 70.909C71.6479 71.0822 71.8816 71.3138 72.0589 71.6038C72.2361 71.8939 72.3239 72.2163 72.3239 72.5714V73.4415H70.2862V72.6753H64.9874V74.3117H70.403C70.7478 74.3117 71.0674 74.3981 71.3576 74.5713C71.6479 74.7445 71.8816 74.9761 72.0589 75.2662C72.2361 75.5563 72.3239 75.8787 72.3239 76.2338V78.0778C72.3239 78.4242 72.2361 78.7447 72.0589 79.039C71.8816 79.3334 71.6479 79.5671 71.3576 79.7403C71.0674 79.9135 70.7478 80 70.403 80H64.8958ZM73.7654 80V76.3766C73.7654 76.0302 73.853 75.7143 74.0264 75.4285C74.1998 75.1429 74.4278 74.9156 74.7141 74.7467C75.0005 74.578 75.316 74.4934 75.6628 74.4934H80.9615V72.6363H75.7524V73.3896H73.7654V72.5325C73.7654 72.1861 73.853 71.8702 74.0264 71.5844C74.1998 71.2986 74.4278 71.0714 74.7141 70.9025C75.0005 70.7337 75.316 70.6493 75.6628 70.6493H81.0512C81.3979 70.6493 81.7135 70.7337 81.9999 70.9025C82.2862 71.0714 82.5141 71.2986 82.6875 71.5844C82.8609 71.8702 82.9486 72.1861 82.9486 72.5325V74.5974C82.9486 74.9436 82.8609 75.2598 82.6875 75.5454C82.5141 75.8311 82.2862 76.0606 81.9999 76.2338C81.7135 76.407 81.3979 76.4935 81.0512 76.4935H75.7524V78.013H82.9486V80H73.7654ZM84.5713 80V70.6493H91.6369C91.9817 70.6493 92.3013 70.7358 92.5915 70.909C92.8818 71.0822 93.1155 71.3138 93.2928 71.6038C93.47 71.8939 93.5578 72.2163 93.5578 72.5714V74.3247C93.5578 74.4371 93.5519 74.5433 93.5383 74.6428C93.5266 74.7424 93.5013 74.8355 93.4682 74.922C93.5967 75.0866 93.7058 75.2771 93.7915 75.4935C93.8791 75.71 93.922 75.9264 93.922 76.1428V78.0778C93.922 78.4242 93.8324 78.7447 93.6552 79.039C93.4779 79.3334 93.2441 79.5671 92.9538 79.7403C92.6636 79.9135 92.3422 80 91.9876 80H84.5713ZM86.5836 74.2337H91.5201V72.6753H86.5836V74.2337ZM86.5836 77.974H91.8824V76.2597H86.5836V77.974ZM100.91 80C100.588 80 100.296 79.9221 100.033 79.7662C99.7682 79.6104 99.5578 79.3982 99.402 79.1298C99.2461 78.8616 99.1682 78.567 99.1682 78.2467V77.6234H100.727V78.1947C100.727 78.2641 100.748 78.3204 100.793 78.3636C100.836 78.4069 100.892 78.4285 100.96 78.4285H106.701C106.771 78.4285 106.83 78.4069 106.877 78.3636C106.923 78.3204 106.949 78.2641 106.949 78.1947V76.3376C106.949 76.2771 106.923 76.225 106.877 76.1818C106.83 76.1386 106.771 76.1169 106.701 76.1169H100.91C100.588 76.1169 100.296 76.0369 100.033 75.8765C99.7682 75.7164 99.5578 75.5043 99.402 75.2403C99.2461 74.9761 99.1682 74.6839 99.1682 74.3637V72.4025C99.1682 72.0823 99.2461 71.7877 99.402 71.5195C99.5578 71.2511 99.7682 71.0389 100.033 70.8831C100.296 70.7272 100.588 70.6493 100.91 70.6493H106.766C107.087 70.6493 107.379 70.7272 107.642 70.8831C107.907 71.0389 108.12 71.2511 108.279 71.5195C108.439 71.7877 108.519 72.0823 108.519 72.4025V73.0259H106.949V72.4546C106.949 72.3852 106.923 72.3289 106.877 72.2857C106.83 72.2424 106.771 72.2208 106.701 72.2208H100.96C100.892 72.2208 100.836 72.2424 100.793 72.2857C100.748 72.3289 100.727 72.3852 100.727 72.4546V74.3117C100.727 74.3722 100.748 74.4243 100.793 74.4675C100.836 74.5108 100.892 74.5324 100.96 74.5324H106.766C107.087 74.5324 107.379 74.6124 107.642 74.7728C107.907 74.9329 108.12 75.145 108.279 75.409C108.439 75.6732 108.519 75.9654 108.519 76.2856V78.2467C108.519 78.567 108.439 78.8616 108.279 79.1298C108.12 79.3982 107.907 79.6104 107.642 79.7662C107.379 79.9221 107.087 80 106.766 80H100.91ZM111.597 80C111.277 80 110.987 79.9199 110.728 79.7598C110.467 79.5995 110.259 79.3897 110.097 79.1298C109.937 78.8701 109.857 78.5801 109.857 78.2598V74.2078C109.857 73.8874 109.937 73.5973 110.097 73.3376C110.259 73.078 110.467 72.8679 110.728 72.7078C110.987 72.5475 111.277 72.4674 111.597 72.4674H115.766C116.095 72.4674 116.389 72.5475 116.65 72.7078C116.909 72.8679 117.118 73.078 117.273 73.3376C117.429 73.5973 117.507 73.8874 117.507 74.2078V78.2598C117.507 78.5801 117.429 78.8701 117.273 79.1298C117.118 79.3897 116.909 79.5995 116.65 79.7598C116.389 79.9199 116.095 80 115.766 80H111.597ZM111.649 78.4546H115.715C115.783 78.4546 115.842 78.4306 115.89 78.3831C115.937 78.3356 115.961 78.2771 115.961 78.2078V74.2596C115.961 74.1905 115.937 74.132 115.89 74.0843C115.842 74.0368 115.783 74.013 115.715 74.013H111.649C111.579 74.013 111.521 74.0368 111.474 74.0843C111.427 74.132 111.402 74.1905 111.402 74.2596V78.2078C111.402 78.2771 111.427 78.3356 111.474 78.3831C111.521 78.4306 111.579 78.4546 111.649 78.4546ZM118.871 80V71.7402C118.871 71.4199 118.949 71.1277 119.105 70.8636C119.26 70.5994 119.469 70.3896 119.734 70.2338C119.999 70.0779 120.291 70 120.61 70H123.429V71.5585H120.663C120.593 71.5585 120.535 71.5822 120.488 71.6298C120.439 71.6775 120.416 71.7316 120.416 71.7922V72.4674H123.429V74.013H120.416V80H118.871ZM126.351 80C126.03 80 125.738 79.9199 125.475 79.7598C125.21 79.5995 124.999 79.3897 124.844 79.1298C124.688 78.8701 124.61 78.5801 124.61 78.2598V70.1169H126.157V72.4674H129.168V74.013H126.157V78.2078C126.157 78.2771 126.18 78.3356 126.227 78.3831C126.275 78.4306 126.334 78.4546 126.402 78.4546H129.168V80H126.351ZM132.948 80L129.987 72.4674H131.637L133.571 77.1817L135.624 72.4674H137.3L139.481 77.2078L141.274 72.4674H142.935L140.091 80H138.87L136.468 74.6882L134.183 80H132.948ZM145.532 80C145.213 80 144.92 79.9199 144.655 79.7598C144.392 79.5995 144.182 79.3897 144.026 79.1298C143.87 78.8701 143.792 78.5801 143.792 78.2598V75.4546H149.896V74.2596C149.896 74.1905 149.872 74.132 149.826 74.0843C149.777 74.0368 149.719 74.013 149.65 74.013H143.792V72.4674H149.701C150.03 72.4674 150.324 72.5475 150.585 72.7078C150.844 72.8679 151.053 73.078 151.209 73.3376C151.365 73.5973 151.442 73.8874 151.442 74.2078V80H145.532ZM145.585 78.4546H149.896V76.8701H145.337V78.2078C145.337 78.2771 145.363 78.3356 145.409 78.3831C145.456 78.4306 145.515 78.4546 145.585 78.4546ZM152.584 80V74.2078C152.584 73.8874 152.664 73.5973 152.826 73.3376C152.985 73.078 153.198 72.8679 153.461 72.7078C153.726 72.5475 154.014 72.4674 154.326 72.4674H158.52V74.013H154.376C154.308 74.013 154.25 74.0368 154.201 74.0843C154.154 74.132 154.131 74.1905 154.131 74.2596V80H152.584ZM161.117 80C160.797 80 160.507 79.9199 160.248 79.7598C159.987 79.5995 159.778 79.3897 159.617 79.1298C159.457 78.8701 159.377 78.5801 159.377 78.2598V74.2078C159.377 73.8874 159.457 73.5973 159.617 73.3376C159.778 73.078 159.987 72.8679 160.248 72.7078C160.507 72.5475 160.797 72.4674 161.117 72.4674H165.285C165.615 72.4674 165.909 72.5475 166.17 72.7078C166.429 72.8679 166.637 73.078 166.793 73.3376C166.949 73.5973 167.027 73.8874 167.027 74.2078V77.013H160.922V78.2078C160.922 78.2771 160.947 78.3356 160.994 78.3831C161.041 78.4306 161.099 78.4546 161.169 78.4546H167.027V80H161.117ZM160.922 75.5974H165.48V74.2596C165.48 74.1905 165.457 74.132 165.41 74.0843C165.361 74.0368 165.303 74.013 165.235 74.013H161.169C161.099 74.013 161.041 74.0368 160.994 74.0843C160.947 74.132 160.922 74.1905 160.922 74.2596V75.5974Z"
        fill="#08354B" />
</svg>