<?xml version="1.0" standalone="no"?>
<!DOCTYPE svg PUBLIC "-//W3C//DTD SVG 20010904//EN" "http://www.w3.org/TR/2001/REC-SVG-20010904/DTD/svg10.dtd">
<svg version="1.0" xmlns="http://www.w3.org/2000/svg" width="1754.000000pt" height="572.000000pt"
    viewBox="0 0 1754.000000 572.000000" preserveAspectRatio="xMidYMid meet">
    <metadata>
        Created by potrace 1.16, written by Peter Selinger 2001-2019
    </metadata>
    <g transform="translate(0.000000,572.000000) scale(0.100000,-0.100000)" fill="#000000" stroke="none">
        <path d="M16089 4160 c-161 -27 -366 -115 -494 -212 -260 -196 -433 -465 -501
-778 -26 -119 -27 -409 -1 -530 36 -168 95 -308 190 -450 73 -109 272 -302
381 -369 303 -187 691 -231 1030 -117 347 117 655 437 776 805 48 149 63 269
57 464 -4 141 -9 189 -30 270 -54 204 -153 378 -305 538 -194 204 -420 328
-680 374 -92 16 -340 19 -423 5z m401 -295 c366 -77 626 -348 712 -740 8 -36
13 -123 12 -220 0 -129 -5 -177 -22 -248 -71 -288 -252 -521 -497 -638 -130
-63 -217 -82 -380 -83 -265 -2 -445 67 -623 238 -185 178 -275 365 -302 629
-31 304 62 588 261 801 150 161 334 255 549 280 56 6 219 -5 290 -19z" />
        <path d="M12290 4153 c-109 -10 -204 -28 -275 -50 -432 -135 -758 -510 -830
-953 -19 -123 -19 -357 0 -480 83 -512 491 -915 1008 -996 138 -22 381 -15
490 15 143 38 277 108 400 208 61 50 159 155 201 214 8 13 19 20 23 16 13 -14
-16 -291 -41 -388 -88 -346 -333 -587 -664 -654 -105 -22 -355 -17 -447 9
-184 50 -346 178 -420 333 l-40 83 -174 0 -173 0 7 -27 c15 -63 68 -179 111
-245 144 -223 380 -377 675 -439 124 -26 384 -32 514 -10 492 80 812 417 917
962 21 112 22 132 25 1232 l4 1117 -145 0 -146 0 -2 -196 -3 -196 -67 80
c-134 160 -318 278 -511 327 -139 35 -314 50 -437 38z m360 -311 c238 -78 469
-296 570 -539 63 -150 74 -210 74 -408 0 -167 -2 -186 -27 -268 -50 -161 -118
-277 -242 -406 -186 -194 -380 -282 -627 -282 -253 0 -455 86 -634 272 -146
152 -232 323 -265 527 -16 101 -13 304 6 397 66 318 304 594 598 696 117 40
174 48 322 45 113 -3 142 -7 225 -34z" />
        <path d="M3410 4135 c-279 -41 -522 -164 -706 -357 -230 -242 -336 -520 -337
-883 0 -355 113 -640 352 -888 249 -258 529 -377 886 -377 264 0 471 61 680
199 96 63 248 218 320 326 55 82 155 267 155 287 0 4 -76 8 -170 8 l-170 0
-29 -58 c-66 -131 -192 -265 -331 -350 -263 -162 -640 -169 -919 -16 -249 136
-431 413 -457 695 l-7 69 1083 0 1083 0 -7 114 c-14 236 -55 406 -141 582 -68
140 -146 245 -267 359 -150 142 -315 228 -527 276 -115 26 -361 33 -491 14z
m266 -275 c334 -30 574 -189 719 -479 39 -78 105 -268 105 -302 0 -19 -16 -19
-909 -19 l-909 0 18 84 c88 402 381 674 769 715 42 5 81 9 86 10 6 0 60 -4
121 -9z" />
        <path d="M9450 4145 c-8 -2 -49 -9 -90 -15 -410 -67 -777 -380 -924 -788 -51
-142 -69 -261 -69 -447 0 -136 4 -190 22 -272 54 -257 161 -454 342 -634 234
-232 504 -339 854 -339 265 0 469 59 675 195 58 39 176 149 229 215 l20 25 1
-187 0 -188 145 0 145 0 0 1195 0 1195 -145 0 -145 0 -2 -190 -3 -190 -44 55
c-88 113 -263 240 -412 299 -135 53 -221 68 -409 71 -96 2 -182 2 -190 0z
m365 -299 c266 -71 537 -325 635 -595 152 -416 7 -890 -355 -1159 -142 -105
-277 -151 -465 -159 -270 -11 -481 71 -673 264 -211 211 -298 456 -276 780 30
438 350 810 759 882 79 14 303 6 375 -13z" />
        <path d="M890 4123 c-76 -8 -209 -47 -287 -83 -100 -47 -155 -84 -239 -162
l-64 -60 0 131 0 131 -150 0 -150 0 0 -1195 0 -1195 149 0 150 0 3 783 c4 770
4 783 26 862 36 132 85 218 171 305 86 86 150 126 266 166 106 36 316 45 446
20 188 -37 325 -136 398 -288 87 -184 91 -226 91 -1100 l0 -748 151 0 150 0
-4 798 c-3 697 -6 810 -21 900 -35 213 -110 368 -236 492 -169 166 -409 252
-694 248 -66 0 -137 -3 -156 -5z" />
        <path d="M14752 4110 c-40 -11 -100 -34 -133 -51 -66 -35 -168 -125 -214 -188
-16 -22 -33 -41 -37 -41 -5 0 -8 61 -8 135 l0 135 -140 0 -140 0 0 -1195 0
-1195 149 0 149 0 5 803 c5 890 4 879 72 1024 41 88 102 151 185 193 68 34
194 70 247 70 l33 0 0 165 0 165 -47 -1 c-27 0 -81 -9 -121 -19z" />
        <path d="M6219 3430 c-309 -48 -520 -353 -455 -658 23 -111 70 -196 151 -278
118 -118 256 -171 420 -161 203 12 372 122 462 300 60 120 75 233 48 362 -60
287 -337 479 -626 435z" />
    </g>
</svg>